<svg width="54" height="38" viewBox="0 0 54 38" fill="none" xmlns="http://www.w3.org/2000/svg">
<path d="M4.19244 10.7312L10.9302 3.86684L7.20142 0.0700777L19.8038 0L19.7337 12.6024L15.9416 8.84089L9.06722 15.739L4.19244 10.7312Z" fill="white"/>
<path d="M12.8917 19.4305L28.3264 3.93763L24.545 0.191429L37.1475 0.121353L37.0774 12.7238L33.2973 8.9391L17.8662 24.405L12.8917 19.4305Z" fill="white"/>
<path d="M21.6153 27.9611L45.167 4.29599L41.3976 0.526639L54 0.45649L53.9299 13.0589L50.1454 9.27445L26.615 32.9104L21.6153 27.9611Z" fill="white"/>
<path d="M26.9921 32.5334L4.69119 10.2325L1.89561e-05 14.9236L22.3009 37.2245L26.9921 32.5334Z" fill="white"/>
</svg>
